{"title":"The Brothers Grimsby *2016* [1080p.AC3 5.1.BDRip.x264-LEON 345]","uid":15429357,"size":3176161891,"categoryP":"video","categoryS":"hd___movies","magnet":"?xt=urn:btih:e304484b305f811250716b9d633b616bcabb33a6&amp;dn=The+Brothers+Grimsby+%2A2016%2A+%5B1080p.AC3+5.1.BDRip.x264-LEON+345%5D&amp;tr=udp%3A%2F%2Ftracker.leechers-paradise.org%3A6969&amp;tr=udp%3A%2F%2Fzer0day.ch%3A1337&amp;tr=udp%3A%2F%2Fopen.demonii.com%3A1337&amp;tr=udp%3A%2F%2Ftracker.coppersurfer.tk%3A6969&amp;tr=udp%3A%2F%2Fexodus.desync.com%3A6969","seeders":26,"leechers":5,"uploader":"Leon345","files":3,"time":1469707240,"description":"Grimsby - The Brothers Grimsby *2016* BDRip.1080p.AC3 5.1.Leon345\r\n=========================================\r\n\r\n[img]http://i1365.photobucket.com/albums/r749/leon3456/Grimsby.1080p_zpsvawpcxkj.jpg[/img]\r\n\r\nProdukcja: Australia, Wielka Brytania\r\nGatunek: Komedia, Akcja\r\nCzas trwania: 83 min.\r\nPremiera: 26.02.2016 - Polska, 24.02.2016 - Świat\r\nReżyseria: Louis Leterrier\r\nScenariusz: Sacha Baron Cohen, Phil Johnston, Peter Baynham\r\n \nhttp://imdb.com/title/tt3381008/\r\n\r\nAbsolutna jazda bez trzymanki! Komedia absurdu według scenariusza Sachy Barona Cohena. Film opowiada historię brytyjskiego agenta do zadań specjalnych (Mark Strong), który wmieszany w spisek, musi ukrywać się w rodzinnym Grimsby, przy którym najciemniejsze zakątki warszawskiej Pragi wydają się centrum kulturalnym wszechświata. W wyplątaniu się z dramatycznej życiowej sytuacji pomaga mu brat. Kibol-degenerat o złotym sercu.\r\n\r\nOBSADA:\r\n\r\nSacha Baron Cohen - Norman &quot;Nobby&quot; Grimsby\r\nMark Strong - Sebastian Grimsby\r\nRebel Wilson - Dawn Grobham\r\nPenélope Cruz - Rhonda George\r\nIsla Fisher - Jodie Figgis\r\nGabourey Sidibe - Sprzątaczka Banu\r\nTamsin Egerton - Carla Barnes\r\nScott Adkins - Pavel Lukashenko\r\n\r\nGeneral\r\n\r\nFormat : Matroska\r\nFormat version : Version 2\r\nFile size : 2.96 GiB\r\nDuration : 1h 23mn\r\nOverall bit rate : 5 093 Kbps\r\nMovie name : Grimsby.2016.BDRip.1080p.Leon345\r\nEncoded date : UTC 2016-07-27 14:12:45\r\nWriting application : mkvmerge v5.7.0 ('The Whirlwind') built on Jul 8 2012 20:08:51\r\nWriting library : libebml v1.2.3 + libmatroska v1.3.0\r\n\r\nVideo\r\nID : 1\r\nFormat : AVC\r\nFormat/INFO : Advanced Video Codec\r\nFormat profile :   \r\nFormat settings, CABAC : Yes\r\nFormat settings, ReFrames : 4 frames\r\nCodec ID : V_MPEG4/ISO/AVC\r\nDuration : 1h 23mn\r\nBit rate : 4 299 Kbps\r\nWidth : 1 920 pixels\r\nHeight : 800 pixels\r\nDisplay aspect ratio : 2.40:1\r\nFrame rate mode : Constant\r\nFrame rate : 23.976 (24000/1001) fps\r\nColor space : YUV\r\nChroma subsampling : 4:2:0\r\nBit depth : 8 bits\r\nScan type : Progressive\r\nBits/(Pixel*Frame) : 0.117\r\nStream size : 2.45 GiB (83%)\r\nWriting library : x264 core 148 r2638 7599210\r\nEncoding settings : cabac=1 / ref=4 / deblock=1:-1:-1 / rc=2pass\r\nDefault : Yes\r\nForced : No\r\n\r\nAudio #1\r\nID : 2\r\nFormat : AC-3\r\nFormat/INFO : Audio Coding 3\r\nMode extension : CM (complete main)\r\nFormat settings, Endianness : Big\r\nCodec ID : A_AC3\r\nDuration : 1h 23mn\r\nBit rate mode : Constant\r\nBit rate : 384 Kbps\r\nChannel(s) : 6 channels\r\nChannel positions : Front: L C R, Side: L R, LFE\r\nSampling rate : 48.0 KHz\r\nCompression mode : Lossy\r\nStream size : 228 MiB (8%)\r\nTitle : AC3 5.1 Lektor PL\r\nLanguage : Polish\r\nDefault : Yes\r\nForced : No\r\n\r\nAudio #2\r\nID : 3\r\nFormat : AC-3\r\nFormat/INFO : Audio Coding 3\r\nMode extension : CM (complete main)\r\nFormat settings, Endianness : Big\r\nCodec ID : A_AC3\r\nDuration : 1h 23mn\r\nBit rate mode : Constant\r\nBit rate : 384 Kbps\r\nChannel(s) : 6 channels\r\nChannel positions : Front: L C R, Side: L R, LFE\r\nSampling rate : 48.0 KHz\r\nCompression mode : Lossy\r\nStream size : 228 MiB (8%)\r\nTitle : AC3 5.1 ENG\r\nLanguage : English\r\nDefault : No\r\nForced : No\r\n\r\nText #1\r\nID : 4\r\nFormat : UTF-8\r\nCodec ID : S_TEXT/UTF8\r\nCodec ID/INFO : UTF-8 Plain Text\r\nTitle : OCR z Bluray Leon345\r\nLanguage : Polish\r\nDefault : No\r\nForced : No\r\n\r\nText #2\r\nID : 5\r\nFormat : UTF-8\r\nCodec ID : S_TEXT/UTF8\r\nCodec ID/INFO : UTF-8 Plain Text\r\nTitle : OCR z Bluray Leon345\r\nLanguage : English\r\nDefault : No\r\nForced : No\r\n\r\nText #3\r\nID : 6\r\nFormat : PGS\r\nMuxing mode : zlib\r\nCodec ID : S_HDMV/PGS\r\nCodec ID/INFO : Picture based subtitle format used on BDs/HD-DVDs\r\nTitle : Bluray orginal\r\nLanguage : Polish\r\nDefault : No\r\nForced : No\r\n\r\nText #4\r\nID : 7\r\nFormat : PGS\r\nMuxing mode : zlib\r\nCodec ID : S_HDMV/PGS\r\nCodec ID/INFO : Picture based subtitle format used on BDs/HD-DVDs\r\nTitle : Bluray orginal\r\nLanguage : English\r\nDefault : No\r\nForced : No\r\n\r\nSource:\r\nA/V-BD CEE","torrent":{"xt":"urn:btih:e304484b305f811250716b9d633b616bcabb33a6","amp;dn":"The+Brothers+Grimsby+%2A2016%2A+%5B1080p.AC3+5.1.BDRip.x264-LEON+345%5D","amp;tr":["udp%3A%2F%2Ftracker.leechers-paradise.org%3A6969","udp%3A%2F%2Fzer0day.ch%3A1337","udp%3A%2F%2Fopen.demonii.com%3A1337","udp%3A%2F%2Ftracker.coppersurfer.tk%3A6969","udp%3A%2F%2Fexodus.desync.com%3A6969"],"infoHash":"e304484b305f811250716b9d633b616bcabb33a6","infoHashBuffer":{"type":"Buffer","data":[227,4,72,75,48,95,129,18,80,113,107,157,99,59,97,107,202,187,51,166]},"announce":[],"urlList":[]}}